<svg xmlns="http://www.w3.org/2000/svg" fill="none" viewBox="0 0 842 655">
  <path fill="white" d="M508.2 269.4 263.6 19 18.9 269.4l244.7 250.4 244.6-250.4Z"/>
  <path fill="#ED1C2E" d="m327.7 335-9.1-9.3H208.7l-9.2 9.3 4.6 4.8h119.1l4.5-4.8Z"/>
  <path fill="#ED1C2E" d="m263.6 438.2 9.2 9.3-9.2 9.4-9.2-9.4 9.2-9.3Zm0 56.2-45.8-46.9 18.3-18.8-32-32.8h18.3l32 32.8-18.3 18.8 27.5 28.1 27.4-28.1-18.3-18.8 32-32.8h18.4L291 428.8l18.3 18.8-45.7 46.8Zm109.9-112.5-54.9 56.3-9.2-9.5 45.8-46.9h-55l-36.6 37.5-36.6-37.4h-55l45.8 46.9-9.2 9.5-55-56.3h-18.3l128.2 131.3 128.3-131.4h-18.3Z"/>
  <path fill="#ED1C2E" d="M281.9 381.9h-36.6l18.3 18.7 18.3-18.7Z"/>
  <path fill="#ED1C2E" d="m153.7 325.7 27.5-28.2h-27.5v28.2Z"/>
  <path fill="#ED1C2E" d="m350.6 227.2-27.4-28.1v28.1h27.4Z"/>
  <path fill="#ED1C2E" d="m62.1 288.2 36.6-37.5v37.5l-9.1-9.4-9.2 9.4 32.1 32.8V217.9L53 278.8l-9.1-9.4 68.6-70.3v-18.7l-87 89 73.2 75 9.2-9.4-45.8-46.8Z"/>
  <path fill="#ED1C2E" d="m460.4 311.6 13.8-14.1h-32.1v14.1h18.3Z"/>
  <path fill="#ED1C2E" d="m199.5 297.5-36.6 37.6 13.7 14h18.3l-13.7-14 22.9-23.5h119.1l22.8 23.5-13.7 14h18.3l13.7-14-22.9-23.5h77.9v-14.1H199.5Z"/>
  <path fill="#ED1C2E" d="m330 131.2 18.2-.1 135.1 138.3H465L330 131.2Zm171.7 138.2-146.5-150h-55L451.3 274v9.4H488l13.7-14Z"/>
  <path fill="#ED1C2E" d="m373.5 325.7 9.2 9.4-4.6 4.7h18.3l13.7-14.1h-36.6Z"/>
  <path fill="#ED1C2E" d="M190.4 157v18.7l-22.9 23.4v-18.7l22.9-23.4Zm-36.7 75 50.4-51.6v-56.3l-50.4 51.6V232Z"/>
  <path fill="#ED1C2E" d="m222.4 227.2-22.9-23.4-45.8 46.9v18.7l45.8-46.8 4.6 4.6h18.3Z"/>
  <path fill="#ED1C2E" d="M256.7 187.4v-42.1l6.9-7.1 6.9 7.1v42.1l-6.9 7.1-6.9-7.1Zm25.2-49.2-9.2-9.3 22.9-23.4 45.9.1-13.8-14.2H291l-27.5 28.1L236 91.4v18.7l18.3 18.8-9.1 9.3v56.2l18.3 18.8 18.3-18.8v-56.2h.1Z"/>
  <path fill="#ED1C2E" d="m263.6 100.7 22.9-23.4H314l-13.7-14.1h-18.4L263.6 82l-18.3-18.8H227l-13.7 14.1h27.4l22.9 23.4Z"/>
  <path fill="#ED1C2E" d="M286.5 49.1a31.82 31.82 0 0 1-45.7 0l22.9-23.4 22.8 23.4Z"/>
  <path fill="#7B93AA" d="m126.3 353.8 13.7-14V171l64.1-65.5h13.7v98.4l36.6 37.5h-55l-41.2 42.2h247.2l-41.2-42.2h-54.9v-75l114.5 117.3v46.8L400.9 354H126.3m311.3-19v-56.2l-142-145.4.1 112.7 8.9 9.1 54.8.1 13.8 14.1h-44.6v-.1H190.4l13.7-14h82.4L231.6 199V91.4h-32.1l-73.2 74.9v168.8L108 353.9l13.7 14.1h283.9l32-33Z"/>
  <path fill="#7B93AA" d="M479.5 214.6h-4.6V213H486v1.6h-4.6v12.7h-1.9v-12.7Z"/>
  <path fill="#7B93AA" d="M487.6 213h2.6l4.4 12 4.4-12h2.6v14.3h-1.8v-11.9l-4.4 11.9h-1.5l-4.4-11.9h-.1v11.9h-1.8V213Z"/>
  <path fill="#7B93AA" d="m388.3 626.7-2.8 2.7-9.7-10 2.1-2.2c3.1-3.2 8-6.5 12-2.5 4.1 4.2 1.6 8.7-1.6 12ZM363.6 607l1-.9c3.3-3.3 6.6-5.4 10.6-1.4 4.1 4.1 2 7.6-1.4 11.1l-.9.9-9.3-9.7Zm17.3 2.9c1-3-.2-6.5-2.3-8.7-6.4-6.5-12.8-2.8-18.1 2.6l-3.5 3.5 28.3 28.9 6.5-6.8c5-5.1 7.6-12.3 1.9-18.1-3.3-3.2-8.9-4.3-12.8-1.4Z"/>
  <path fill="#7B93AA" d="M410.3 605.7c-3.6 3.7-8.6 2.6-11.9-.8-3.3-3.2-4.2-8.5-.8-12.1 3.7-3.7 8.6-2.8 12 .6 3.5 3.5 4.4 8.5.7 12.3Zm-6.7-18.1-.1.1c-3.5-.7-6.9 0-9.5 2.7-5.1 5.2-3.9 12.9.8 17.8 5 5.1 12.5 6.6 17.9 1.1 2.5-2.6 3.2-6.1 2.6-9.5l.1-.1 2.8 2.8 3.3-3.4-17.5-18-3.3 3.5 2.9 3Z"/>
  <path fill="#7B93AA" d="M416.6 567.2c-2.2 2.2-3.2 5.3-2.4 8.3l-.1.1-17.3-17.7-3.4 3.4 32.5 33.3 3.3-3.4-8-8.3c-3.2-3.2-7-7.1-2.6-11.5 3.4-3.6 5.9-1.9 8.9 1.2l10 10.2 3.4-3.4-10.5-10.6c-4.3-4.6-8.8-6.7-13.8-1.6Z"/>
  <path fill="#7B93AA" d="m434.5 555.7-.1.1-2.8-2.9-3.3 3.4 17.5 18 3.4-3.4-8.6-8.8c-2.9-2.9-5.8-6.8-2.2-10.6.8-.7 1.7-1.2 2.8-1.3l-1.5-4.7c-1.3.3-2.7 1-3.7 2-2.3 2.2-2.7 5.3-1.5 8.2Z"/>
  <path fill="#7B93AA" d="M463.8 550.9c-3.6 3.7-8.6 2.5-11.9-.8-3.3-3.4-4.2-8.5-.8-12.1 3.7-3.7 8.6-2.9 12 .7 3.5 3.5 4.4 8.5.7 12.2Zm-6.7-18h-.1c-3.5-.8-6.9.1-9.4 2.7-5.1 5.2-3.9 13 .9 17.9 5 5.2 12.5 6.6 17.8 1.1 2.5-2.5 3.3-6.1 2.6-9.4h.1l2.7 2.8 3.4-3.5-17.5-18-3.4 3.5 2.9 2.9Z"/>
  <path fill="#7B93AA" d="m483.6 535.5-3.4 3.6-17.5-18.1 3.4-3.4 17.5 17.9Z"/>
  <path fill="#7B93AA" d="M454 508.8c-1.2 1.3-1.2 3.5 0 4.8 1.3 1.3 3.3 1.2 4.6 0 1.3-1.3 1.3-3.5 0-4.8-1.2-1.2-3.3-1.2-4.6 0Z"/>
  <path fill="#7B93AA" d="M479.6 502.7c-2.1 2.2-3.2 5.3-2.3 8.3l-.1.1-2.3-2.4-3.4 3.6 17.5 17.9 3.3-3.4-8-8.3c-3.2-3.2-7-7.1-2.7-11.6 3.4-3.4 5.9-1.8 8.9 1.3l10 10.2 3.4-3.4-10.5-10.7c-4.2-4.5-8.9-6.6-13.8-1.6Z"/>
  <path fill="#7B93AA" d="m519.6 498.7 3.5-3.5-28.2-29-3.5 3.7 28.2 28.8Z"/>
  <path fill="#7B93AA" d="M518.6 462.7c-2.1 2.2-3.2 5.4-2.4 8.4l-.1.1-2.4-2.5-3.4 3.5 17.5 17.8 3.3-3.4-8-8.3c-3.2-3.3-7-7.2-2.6-11.7 3.4-3.5 5.8-1.8 8.8 1.2l10 10.3 3.4-3.5-10.4-10.6c-4.1-4.2-8.7-6.3-13.7-1.3Z"/>
  <path fill="#7B93AA" d="m527.2 441.4-3.4 3.4 6.7 6.9-1.8 1.9 3.1 3.1 1.9-1.9 14.3 14.8 3.4-3.4-14.4-14.8 3.4-3.3-3.2-3.3-3.3 3.4-6.7-6.8Z"/>
  <path fill="#7B93AA" d="M548 447.7c-2.1-3.1-2-6.9.6-9.6 2.7-2.7 6.1-2.7 9.2-.4l-9.8 10Zm-2.3-12.6c-5.7 5.8-4.5 12.9.9 18.3 5.2 5.3 12.5 6.1 17.8.7 3.4-3.5 4.8-8.4 3.3-13.3l-4.4 1.2c.9 3.5.7 6.2-1.8 8.9-3.2 3.2-8.1 2.4-11.2-.6l13.4-13.6-.5-.6c-5.2-5.2-12-6.7-17.5-1Z"/>
  <path fill="#7B93AA" d="m563.8 423.4-.1.1-2.8-2.9-3.4 3.4 17.5 18 3.4-3.5-8.6-8.8c-2.9-2.9-5.8-6.8-2.2-10.6.9-.7 1.6-1.2 2.8-1.3l-1.5-4.7c-1.3.4-2.7 1-3.6 2-2.3 2.3-2.7 5.3-1.5 8.3Z"/>
  <path fill="#7B93AA" d="M578.9 401.1c-2.1 2.2-3.2 5.4-2.4 8.3h-.1l-2.4-2.3-3.4 3.4 17.5 18 3.4-3.5-8-8.2c-3.2-3.3-7-7.1-2.6-11.6 3.5-3.6 5.9-1.9 8.8 1.1l10 10.3 3.4-3.5-10.4-10.7c-4.3-4.2-8.9-6.4-13.8-1.3Z"/>
  <path fill="#7B93AA" d="M613 398.2c-3.6 3.6-8.7 2.5-11.9-.8-3.3-3.3-4.3-8.5-.8-12.1 3.7-3.7 8.6-2.9 12 .6 3.4 3.6 4.3 8.6.7 12.3Zm-6.8-18.1-.1.1c-3.4-.8-6.9.1-9.5 2.8-5.1 5.2-3.9 12.9.9 17.8 5 5.1 12.5 6.6 17.8 1.2 2.5-2.6 3.3-6.1 2.6-9.5l.1-.1 2.8 2.8 3.3-3.4-17.5-17.9-3.3 3.4 2.9 2.8Z"/>
  <path fill="#7B93AA" d="m608.2 358.4-3.3 3.5 6.7 6.8-1.9 2 3.2 3.1 1.8-1.9 14.3 14.7 3.5-3.5-14.4-14.6 3.2-3.4-3.1-3.2-3.3 3.3-6.7-6.8Z"/>
  <path fill="#7B93AA" d="m638.3 377.2 3.3-3.4-17.5-18-3.3 3.4 17.5 18Z"/>
  <path fill="#7B93AA" d="M612.1 346.9c-1.3 1.3-1.3 3.5 0 4.9 1.2 1.3 3.4 1.2 4.6-.1 1.2-1.3 1.3-3.4 0-4.7-1.2-1.3-3.3-1.3-4.6-.1Z"/>
  <path fill="#7B93AA" d="M652.2 357.6c-3.3 3.4-8.8 3.2-12.1-.1-3.3-3.4-3.4-8.9-.1-12.4 3.3-3.4 8.8-3.3 12.1.1 3.3 3.4 3.4 8.9.1 12.4Zm-15.4-15.8c-5.3 5.4-5.3 13.7 0 19.1 5.3 5.4 13.4 5.4 18.6 0 5.3-5.4 5.3-13.7 0-19.1-5.2-5.5-13.3-5.4-18.6 0Z"/>
  <path fill="#7B93AA" d="M657.9 320.2c-2.1 2.2-3.2 5.4-2.4 8.4l-.1.1-2.3-2.3-3.4 3.4 17.5 17.9 3.3-3.5-8-8.2c-3.2-3.3-7-7.2-2.6-11.7 3.4-3.5 5.9-1.9 8.9 1.2l10 10.2 3.4-3.4-10.4-10.7c-4.3-4.4-8.9-6.5-13.9-1.4Z"/>
  <path fill="#7B93AA" d="M692 317.3c-3.6 3.6-8.6 2.5-11.9-.8-3.3-3.4-4.3-8.6-.8-12.2 3.6-3.7 8.6-2.8 12 .6 3.5 3.6 4.3 8.6.7 12.4Zm-6.7-18c-3.6-.7-7 .1-9.6 2.7-5.1 5.2-3.9 12.9.9 17.8 5 5.1 12.5 6.6 17.9 1.1 2.6-2.5 3.2-6.1 2.6-9.5h.1l2.7 2.8 3.3-3.4-17.5-18-3.4 3.5 3 3Z"/>
  <path fill="#7B93AA" d="m707.8 306.1 3.4-3.5-32.5-33.2-3.4 3.4 32.5 33.3Z"/>
  <path fill="#7B93AA" d="M711.6 273.6c8.2 8.4 21.2 8.2 29.2-.2 2.5-2.5 4.5-6 5.4-9.6l-4.1-4.3c-.2 4-1.9 7.8-4.6 10.7-6.3 6.5-16.4 5.9-22.5-.4-6.3-6.3-6.7-16.7-.4-23.2 2.7-2.7 6.4-4.6 10.2-4.8l-4.1-4c-3.4.8-6.5 2.7-9 5.2-8.3 8.5-8.5 22.1-.1 30.6Z"/>
  <path fill="#7B93AA" d="m752.2 260.6 3.4-3.4-17.5-18-3.4 3.5 17.5 17.9Z"/>
  <path fill="#7B93AA" d="M726 230.4a3.32 3.32 0 0 0 0 4.7c1.3 1.4 3.3 1.4 4.6 0 1.3-1.3 1.4-3.3.1-4.6-1.3-1.4-3.4-1.4-4.7-.1Z"/>
  <path fill="#7B93AA" d="m750 232.9-.1.1-2.9-3-3.4 3.4 17.5 18 3.4-3.4-8.6-8.8c-2.9-2.9-5.8-6.9-2.1-10.6.8-.8 1.6-1.2 2.8-1.4l-1.5-4.7c-1.4.4-2.7 1-3.6 2-2.3 2.3-2.7 5.4-1.5 8.4Z"/>
  <path fill="#7B93AA" d="M764.2 230.8c5.2 5.4 13.4 5.1 18.5-.2 1.7-1.8 2.9-3.7 3.7-6.1l-4.3-4.4c.1 2.8-.5 5.2-2.5 7.3-3.5 3.7-8.6 3.4-12.2-.2-3.2-3.3-3.7-8.8-.3-12.3 2-2.1 4.5-2.9 7.4-2.7l-4.3-4.4c-2.2.6-4.3 1.9-5.8 3.5-5.5 5.5-5.7 13.9-.2 19.5Z"/>
  <path fill="#7B93AA" d="M794.1 201.7c2.7 3 4.5 6.1 1.2 9.5-3.3 3.5-6.5 1.6-9.3-1.2l-9.7-9.9-3.4 3.5 10.1 10.3c4.8 4.9 10.3 5.9 15.5.6 5.2-5.3 4.1-10.9-.7-15.8l-10.1-10.3-3.4 3.5 9.8 9.8Z"/>
  <path fill="#7B93AA" d="M784.3 170.6c-1.2 1.3-1.2 3.4.1 4.8 1.2 1.3 3.3 1.3 4.6 0 1.3-1.3 1.3-3.4 0-4.7-1.3-1.4-3.4-1.4-4.7-.1Z"/>
  <path fill="#7B93AA" d="m810.5 200.9 3.3-3.4-17.5-17.9-3.4 3.4 17.6 17.9Z"/>
  <path fill="#7B93AA" d="m798.9 163.3-3.4 3.4 6.7 6.9-1.8 1.8 3.1 3.3 1.9-2 14.3 14.7 3.4-3.4-14.4-14.7 3.3-3.3-3.1-3.3-3.3 3.4-6.7-6.8Z"/>
  <path fill="#7B93AA" d="m435.6 405.7-.4.3-3 3.1 32.4 33.2 3.5-3.5-32.5-33.1Z"/>
  <path fill="#7B93AA" d="m420.4 421.2 24.6 25.2c1.1 1.2 1.8 1.9 2 2.3.4.7.5 1.7.3 2.8-.2 1.2-.6 2-1.4 2.7l-.1.1-6.2 6.3-.9 1.1c-2.9 2.9-5.6 3.7-8.5 2.5-7.9-3.2-15.5-5.9-22.8-8.2l-.8-.2.1.8.9 5 11.7 3.8c2.2.7 3.7 1.4 4.7 2.5.6.7 1 1.6 1.4 3 .4 1.8-.1 3.5-1.3 5.4-.4.7-1.9 2.2-4.1 4.5l-9.8 10 3.5 3.5 14-14.4c1.3-1.3 2.2-3 2.7-5.2.4-1.8.4-3.5.1-5.1 2.5.3 4.4.2 5.9-.4 1.8-.6 3.5-1.8 5.4-3.7l1.4-1.4 6.1-6.4.6-.5c1.7-1.7 2.7-4 2.6-6.6 0-2.6-1-4.7-2.8-6.5l-25.9-26.6-.4.4-3 3.3Z"/>
  <path fill="#7B93AA" d="M386.6 498.5c-.8-.8-1.1-1.9-1.1-3.1.1-1.2.6-2.3 1.4-3.1.7-.8 1.8-1.3 3.1-1.3 1.2-.1 2.1.2 2.9 1.1l5 5.1c.8.8 1.3 1.9 1.3 3.3 0 1.2-.4 2.3-1.2 3.1-.9 1-1.9 1.4-3.2 1.4-1.3 0-2.3-.4-3.3-1.4l-4.9-5.1Zm9.9 11.3c2.1-.6 4.8-2.6 8.1-5.9.6.6 3 3.2 3 3.2 1.4 1.5 1.9 3.9 1.5 7.6-.4 3-1.2 5.6-2.5 7.5l-1.2 1.8-.2.4 3.2 3.2.4-.3c1.8-1.8 3.3-4.7 4.2-8.2.6-2.7.9-4.4 1-5.6 0-1.5-.2-3.6-.9-5.8-.5-1.8-1.2-3.1-2.1-4.1l-14.4-15.1c-1.7-1.7-3.9-2.5-6.4-2.3-2.6.1-4.7 1.1-6.4 2.8-1.9 1.9-2.8 4.2-2.7 6.9 0 2.6 1 5 2.9 6.9l3.1 3.3c3.1 3.2 6.3 4.6 9.4 3.7Z"/>
  <path fill="#7B93AA" d="M535.4 382.4c-1.4 1.3-1.6 3.4-.4 4.8 1.1 1.5 3.1 1.7 4.6.6 1.4-1.2 1.6-3.3.5-4.8-1.2-1.5-3.4-1.7-4.7-.6Z"/>
  <path fill="#7B93AA" d="M542 380.5c1.3 1.3 3.3 1.3 4.6 0 1.3-1.4 1.3-3.4.1-4.8-1.3-1.3-3.4-1.3-4.6 0-1.4 1.4-1.4 3.4-.1 4.8Z"/>
  <path fill="#7B93AA" d="M317.7 547.6c1.3 1.3 3.3 1.3 4.6.1 1.3-1.4 1.4-3.5.2-4.8-1.3-1.3-3.4-1.3-4.7-.1-1.4 1.3-1.4 3.5-.1 4.8Zm-6.6 1.9c-1.4 1.1-1.7 3.2-.5 4.7 1.1 1.5 3.1 1.7 4.5.6 1.5-1.2 1.7-3.3.6-4.7-1.1-1.6-3.2-1.8-4.6-.6Zm23.2 5.7c-.9-.8-2-1.3-3.6-1.2-1.4.1-2.7.7-3.6 1.7l-3.9 3.9c-.9.8-1.3 2.1-1.3 3.5 0 1.5.4 2.7 1.3 3.6 1 1 2.1 1.5 3.5 1.5 1.3-.2 2.5-.6 3.5-1.6l3.8-3.9c1.1-1.1 1.6-2.3 1.7-3.9 0-1.4-.4-2.5-1.4-3.6Zm20.8-67.1.4-.4 25.9 26.6c1.7 1.8 2.7 4 2.8 6.5.1 2.4-.9 4.7-2.6 6.6l-.6.5-6 6.1-1.2 1.2c-4 4-8.1 5.4-12.2 4.4.5 2.9.2 5.5-.9 7.8-.8 1.6-2.4 3.8-5.2 6.5l-.1.1-.3.4-3.4 3.4c-3.1 3.2-6.8 4-11 2.6.2 1.6-.4 3.1-1.8 4.5l-5.8 5.9c-1.8 1.8-3.9 2.6-6.6 2.4-2.6-.3-4.8-1.3-6.6-3-1.8-1.9-2.7-4-2.9-6.7-.3-2.6.5-4.9 2.3-6.7l5-5.3c1.7-1.7 4-2.6 6.7-2.6s4.9.9 6.6 2.6c.6.7 1 1.3 1.2 1.8.2.3.4.7.8 1.9 1.4.6 4.2 1.2 5.2 1 1.1-.3 2.1-.8 3-1.7l3.6-3.7.4-.3c3.6-3.7 5.5-6.1 5.8-7.4.5-2-1-4.8-4.2-8.2l-.4-.3 3-3.1.4-.4.3.4c3 3 5.5 4.4 7.5 4.1 1.6-.4 2.4-.7 2.8-1 .3-.2 1.3-.9 3.2-2.9l1.2-1.2 6-6.1.2-.2c.6-.7 1-1.6 1.3-2.6.2-1.2.1-2.2-.4-2.8-.2-.4-.8-1.2-2-2.3l-24.6-25.2 3.2-3.2Zm17.8 60.7c-1.3 1.3-1.3 3.4.1 4.8 1.3 1.3 3.3 1.3 4.6 0 1.3-1.3 1.3-3.4 0-4.7-1.4-1.4-3.4-1.4-4.7-.1Zm-2.2 11.7c-1.2 1.3-3.3 1.4-4.6.1-1.3-1.4-1.3-3.5 0-4.8 1.3-1.3 3.4-1.3 4.7 0 1.2 1.3 1.2 3.4-.1 4.7Z"/>
  <path fill="#7B93AA" d="M483.3 391.9c1.3-1.3 1.4-3.4.1-4.7a3.32 3.32 0 0 0-4.7 0c-1.3 1.3-1.3 3.4.1 4.8 1.2 1.3 3.3 1.2 4.5-.1Z"/>
  <path fill="#7B93AA" d="M622.1 287.1c-1.3 1.3-1.3 3.4.1 4.8 1.2 1.4 3.4 1.3 4.6 0 1.3-1.3 1.4-3.3 0-4.7-1.3-1.4-3.4-1.4-4.7-.1Z"/>
  <path fill="#7B93AA" d="m620.4 216.5 32.4 33.2 3.5-3.5-32.5-33.3-.4.4-3 3.2Z"/>
  <path fill="#7B93AA" d="m615 288.4.4-.3.9-1c2.2-2.3 3.7-4.3 4.3-5.7 1.1-2.3 1.4-4.9.9-7.8 4.2 1.1 8.2-.3 12.2-4.4l.6-.5 1.6-1.6 2.2-2.3c1.8-1.9 2.8-4.1 2.7-6.6-.1-2.5-1-4.6-2.8-6.5l-25.9-26.6-.4.4-3.1 3.1 24.6 25.3c1.2 1.1 1.8 1.9 2 2.3.4.7.5 1.8.3 2.8-.2 1.1-.6 2-1.3 2.6l-1.9 2-1.6 1.6-.5.4c-2 2-2.9 2.8-3.2 2.9-.5.4-1.3.7-2.9 1-2 .4-4.5-1-7.5-4.1l-.4-.3-.3.3-3 3.1.3.4c3.3 3.3 4.7 6.1 4.3 8.1-.3 1.3-2.2 3.7-5.9 7.3l-.3.4-3 3c-1 .9-1.6.6-2 .2l-.6-.8-.1-.1c-.4-.6-.8-1.1-1.4-1.7-3.2-3.3-7.4-3.6-12.8-1.2l-9.1 4.2c-3.9 1.8-7 3.8-9.3 6.2-3 2.9-5.1 5.8-6.3 8.4-.6 1.6-1.5 4.9-2.6 10.3l-.5 1.7 5.3-5.4v-.2c1.2-4.6 2.8-8 4.9-10.1 2.6-2.6 5.5-4.8 8.8-6.6.9-.5 5.6-2.5 10.4-4.6 3.1-1.4 5.5-1.2 7.2.4 1.2 1.2 1.6 2.5 1.5 4.1-.3 1.6-1 3-2.2 4.3L571 325.9l-6.4 6.5-.7.7c-1.8 1.8-4.1 2.8-6.8 2.8-1.6 0-2.9-.6-4-1.7l-2.3-2.3-.4.4-3 3.1 7.7 7.8c4.8 4.9 7.5 9.1 8.2 12.6.8 4.6-1.3 9.6-6.4 14.9l-.4.4 3.3 3.4.8-.5c8.1-8.4 10.1-16.6 5.9-24.4-1.1-2.1-3.6-5.1-7.5-9.2 3.4-.2 6.2-1.4 8.3-3.6l.9-.7 6.3-6.4 28.4-29.2c2.1-2.1 3.3-4.6 3.6-7.5v-.5c2.4.3 4.6-.4 6.3-2.3l2.2-1.8Z"/>
  <path fill="#7B93AA" d="M530.2 375.3c2.4-2.7 3.8-5.7 3.9-9 .2-3.5-1-6.6-3.7-9.2l-1.8-2-.4.5-3.1 3.2.4.3c2.6 2.6 3.8 4.8 3.9 6.8.1 1.9-.7 3.8-2.4 5.5l-2.8 2.8c-4.4 4.5-5.7 5.6-6.8 6.2-3.1 1.9-8.6 2.2-11.8-.9l-.5-.5-.3.4-3.1 3.2 8 8.1c3.4 3.5 4.8 7.9 4.3 13.2-.5 5-2.6 9.4-6.1 13-3.5 3.5-7.6 5.4-12.5 5.7-4.7.3-8.9-1.2-12.3-4.7l-8-8.2-3.5 3.5 8 8.2c4.4 4.4 9.8 6.6 16.1 6.2 6.1-.2 11.4-2.6 15.8-7.1 4.5-4.6 7-10.1 7.5-16.5.4-6.7-1.6-12.4-6-16.9 0 0-.5-.5-1-1.1 1.6.2 3.3.1 5.3-.4 2.4-.6 4.4-1.8 5.8-3.3l7.1-7Z"/>
  <path fill="#7B93AA" d="M674.9 206.6c-.9-.8-2-1.1-3.6-1-1.4.1-2.7.6-3.7 1.6l-3.8 3.9c-.9.9-1.3 2.1-1.3 3.6s.4 2.7 1.3 3.6c1 1 2.1 1.4 3.5 1.4s2.5-.6 3.4-1.5l3.8-4c1.1-1 1.6-2.2 1.6-3.9.1-1.4-.3-2.6-1.2-3.7Zm88.7-70.3-29.8 30.6-4.9 5-2.6 2.7c-.7.8-1.9 1.3-3.5 1.6-1.3.3-2.3.3-3.3.1.2 1.2.2 2.2-.1 3.7-.5 1.6-1.1 2.9-2 3.8l-2.1 2.1-1.7 1.9-.4.3c-3.8 3.9-7.7 5.3-11.9 4.1.5 3 .2 5.5-.8 7.8-.8 1.6-1.5 2.7-3.8 5v.1l-.1.1c-.1.1-.3.2-.3.3l-.3.4-3.4 3.5c-3.1 3.1-6.8 4-11.1 2.6.2 1.5-.4 3-1.7 4.5l-5.8 5.9c-1.8 1.9-4 2.6-6.6 2.4-2.6-.3-4.9-1.3-6.6-3.1-1.8-1.8-2.8-4.1-3-6.6-.2-2.7.6-5 2.4-6.8l5.1-5.2c1.7-1.8 3.9-2.7 6.7-2.7 2.6.1 4.9 1 6.6 2.8.6.6 1 1.2 1.2 1.7.2.2.4.7.8 1.7.9.6 2 1.2 2.4 1.2.5.2 1.4.2 2.8-.1 1-.3 2.4-1.1 3.3-1.9l4.2-4.3c3.2-3.4 4-4.7 4.2-5.8.5-2.1-.9-4.7-4.2-8.1l-.4-.4 3.1-3.1.3-.3.4.3c2.9 3.1 5.5 4.4 7.5 4.1 1.5-.3 2.3-.6 2.9-1.1.5-.4 1.2-1 2.8-2.6l.4-.4 1.8-1.7 1.8-1.9c2.2-2.2 1.9-4.6-1.1-7.7l-24.7-25.3 3.1-3.1.4-.4 25.2 26c2.5 2.6 5.1 2.3 7.9-.6l.9-.9 5-5.1 29.8-30.6c1.2-1.3 1.9-2.6 2.2-4.3.2-1.5-.3-2.8-1.3-4.1-1.7-1.7-4.2-1.8-7.2-.5-4.8 2.1-9.5 4.1-10.4 4.6-3.4 1.8-6.2 3.9-8.8 6.6-2.1 2.1-3.7 5.5-4.9 10.2v.2l-5.3 5.3.3-1.6c1.2-5.3 2-8.6 2.7-10.3 1.2-2.6 3.3-5.5 6.3-8.6 2.2-2.3 5.3-4.3 9.2-6.1l9.1-4.1c5.3-2.5 9.7-2.2 12.8 1.1 2 2 2.9 4.7 2.5 7.6-.7 2.8-1.9 5.4-4 7.5Zm-105.7 62.2c1.2 1.4 3.3 1.4 4.6 0 1.3-1.2 1.4-3.3.1-4.7-1.3-1.3-3.4-1.4-4.7-.2-1.2 1.5-1.2 3.6 0 4.9Zm-6.6 1.8c-1.4 1.2-1.6 3.3-.5 4.8 1.1 1.4 3.1 1.7 4.5.5s1.8-3.2.6-4.7c-1.1-1.4-3.2-1.7-4.6-.6Zm50.5 10.1c-1.3-1.4-1.2-3.4 0-4.8 1.3-1.3 3.4-1.3 4.7 0 1.3 1.4 1.3 3.4-.1 4.7-1.3 1.4-3.3 1.4-4.6.1Z"/>
</svg>
