<svg width="340" height="152" viewBox="0 0 340 152" fill="none" xmlns="http://www.w3.org/2000/svg">
<g clip-path="url(#clip0_884_719)">
<path d="M27 135.627L29.6022 121.655H33.846L31.2531 135.627H27Z" fill="white"/>
<path d="M43.2946 129.285L43.733 126.104L44.5631 121.655H48.6296L46.0274 135.627H42.0448L38.8364 128.025L38.4073 131.206L37.5866 135.627H33.52L36.1129 121.655H40.0862L43.2946 129.285Z" fill="white"/>
<path d="M50.0656 121.655H61.9388L61.2579 125.321H57.4432L55.5219 135.627H51.2781L53.1995 125.321H49.3848L50.0656 121.655Z" fill="white"/>
<path d="M60.9126 135.627L63.5055 121.655H74.0729L73.4666 124.92H67.1523L66.7792 126.916H72.1235L71.5173 130.18H66.173L65.7626 132.372H72.3381L71.7318 135.627H60.9126Z" fill="white"/>
<path d="M78.9977 127.69H80.6766C81.9917 127.69 82.7565 127.345 82.943 126.375C83.1295 125.386 82.4953 124.92 81.5067 124.92H79.5294L79.0164 127.69H78.9977ZM78.4288 130.758L77.5241 135.627H73.271L75.8732 121.655H81.9917C86.31 121.655 87.5039 122.914 87.0002 125.638C86.7017 127.251 85.7784 128.604 84.1928 129.051C85.4613 129.592 86.2167 129.947 85.6944 132.754C85.3587 134.582 85.1815 135.198 85.6944 135.198L85.6105 135.627H81.3108C81.2642 135.319 81.3108 134.424 81.544 133.183C81.8891 131.355 81.7118 130.758 79.7252 130.758H78.4288Z" fill="white"/>
<path d="M96.8494 129.285L97.2784 126.104L98.1085 121.655H102.175L99.5728 135.627H95.5996L92.3911 128.025L91.9527 131.206L91.132 135.627H87.0654L89.6676 121.655H93.6409L96.8494 129.285Z" fill="white"/>
<path d="M109.236 125.871L106.988 130.87H109.674L109.236 125.871ZM100.655 135.627L107.893 121.655H112.211L114.254 135.627H110.019L109.861 133.78H105.626L104.796 135.627H100.636H100.655Z" fill="white"/>
<path d="M115.541 121.655H127.423L126.742 125.321H122.918L121.006 135.627H116.763L118.675 125.321H114.86L115.541 121.655Z" fill="white"/>
<path d="M126.388 135.627L128.99 121.655H133.234L130.641 135.627H126.388Z" fill="white"/>
<path d="M137.925 128.566C137.599 130.348 137.683 132.577 139.716 132.577C141.554 132.577 142.589 130.87 143.018 128.566C143.363 126.664 143.018 124.649 141.143 124.696C139.213 124.696 138.252 126.794 137.916 128.566M147.271 128.566C146.385 133.314 142.915 136 139.082 136C135.015 136 132.796 133.286 133.682 128.529C134.502 124.145 137.786 121.282 141.815 121.282C146.441 121.282 147.952 124.873 147.262 128.566" fill="white"/>
<path d="M157.325 129.285L157.754 126.104L158.575 121.655H162.651L160.049 135.627H156.076L152.858 128.025L152.429 131.206L151.608 135.627H147.542L150.134 121.655H154.117L157.325 129.285Z" fill="white"/>
<path d="M169.711 125.871L167.463 130.87H170.15L169.711 125.871ZM161.121 135.627L168.359 121.655H172.677L174.72 135.627H170.485L170.327 133.78H166.092L165.262 135.627H161.103H161.121Z" fill="white"/>
<path d="M175.941 135.627L178.534 121.655H182.787L180.791 132.372H186.63L186.014 135.627H175.941Z" fill="white"/>
<path d="M203.418 125.712C203.437 125.227 203.26 124.938 202.989 124.761C202.71 124.593 202.355 124.509 201.936 124.509C201.003 124.509 200.527 124.798 200.434 125.302C200.042 127.401 207.737 126.095 206.795 131.187C206.189 134.424 203.4 136 199.837 136C196.274 136 194.586 133.845 194.959 131.318H199.035C199.035 131.831 199.212 132.195 199.529 132.428C199.828 132.661 200.257 132.773 200.667 132.773C201.73 132.773 202.495 132.4 202.616 131.747C203.008 129.63 195.285 131.085 196.283 125.75C196.834 122.774 199.483 121.282 202.728 121.282C206.328 121.282 207.597 123.269 207.448 125.712H203.418Z" fill="white"/>
<path d="M214.648 128.025C215.637 128.025 216.439 127.606 216.654 126.403C216.896 125.097 215.562 124.929 214.658 124.929H213.455L212.876 128.035H214.639L214.648 128.025ZM207.224 135.627L209.817 121.655H216.066C219.797 121.655 221.252 123.502 220.72 126.375C220.161 129.378 218.146 131.281 214.424 131.281H212.279L211.468 135.627H207.224Z" fill="white"/>
<path d="M220.207 135.627L222.8 121.655H233.367L232.761 124.92H226.437L226.074 126.916H231.418L230.812 130.18H225.467L225.057 132.372H231.623L231.026 135.627H220.207Z" fill="white"/>
<path d="M232.835 135.627L235.438 121.655H246.005L245.399 124.92H239.075L238.711 126.916H244.056L243.449 130.18H238.105L237.695 132.372H244.27L243.655 135.627H232.835Z" fill="white"/>
<path d="M250.137 132.372H251.032C253.009 132.372 254.297 131.253 254.791 128.604C255.332 125.694 254.595 124.92 252.329 124.92H251.517L250.137 132.372ZM245.277 135.627L247.87 121.655H253.56C257.729 121.655 259.939 123.754 259.081 128.352C258.102 133.612 255.005 135.627 250.846 135.627H245.259H245.277Z" fill="white"/>
<path d="M271.039 130.292H271.076L274.135 121.655H278.239L272.419 135.627H268.241L268.259 127.522H268.222L265.237 135.627H261.068L260.443 121.655H264.538L264.398 130.292H264.426L267.588 121.655H271.095L271.039 130.292Z" fill="white"/>
<path d="M283.247 125.871L281.009 130.87H283.686L283.247 125.871ZM274.667 135.627L281.904 121.655H286.232L288.275 135.627H284.04L283.882 133.78H279.647L278.817 135.627H274.657H274.667Z" fill="white"/>
<path d="M294.99 135.627H290.737L291.688 130.544L288.508 121.655H293.265L294.617 126.393L297.732 121.655H302.414L295.951 130.469L294.99 135.627Z" fill="white"/>
<path d="M88.5483 101.752L93.4077 89.5613L94.1631 101.752H88.5483ZM59.5976 97.1534C57.639 101.696 53.7683 102.973 49.4313 103.151L52.3786 85.7932C52.9382 85.8026 53.4978 85.8399 54.0574 85.9051C60.0919 86.5953 61.8641 92.4993 59.5883 97.1534M104.348 73.2952H87.2239L75.9384 95.2227C77.7944 85.2336 72.7206 74.974 60.3904 73.5563C59.01 73.3978 57.6296 73.3138 56.2586 73.2952H38.3229L30.3857 115.984L46.4094 116.05C55.13 116.04 63.2538 114.492 68.9991 108.691L65.2311 116.022H82.318L84.8082 110.677H95.1611L95.7953 116.04H110.728L104.357 73.2952H104.348Z" fill="white"/>
<path d="M280.785 101.509L285.645 89.3189L286.4 101.509H280.785ZM202.99 96.0995C201.656 100.548 197.627 103.44 193.998 102.535C190.333 101.63 188.458 97.2281 189.829 92.7325C191.191 88.2463 195.248 85.3922 198.886 86.3436C202.495 87.2856 204.333 91.6506 202.999 96.0902M296.585 73.3139H279.461L259.762 110.817L267.168 73.3698L250.575 73.3232L246.817 92.8911L238.824 73.2299H223.453L220.095 89.8598C219.032 81.6615 213.035 74.5917 204.23 72.7916C193.896 70.6744 183.244 74.1906 177.219 82.305L179.075 73.2579H133.644L126.863 82.4263L123.03 73.2579H106.186L116.548 97.7877L113.041 116.022H129.801L133.047 99.2334L143.297 86.4368H151.179L145.349 116.031H161.914L167.697 86.1943H174.878C174.608 86.7726 174.347 87.3509 174.113 87.9571C169.413 100.035 174.505 113.942 187.106 116.386C198.858 118.661 211.225 115.49 217.586 102.871L215.04 116.031H231.521L235.167 97.5638L243.002 115.984H274.49L277.055 110.435H287.407L288.051 115.984H302.983L296.613 73.2952L296.585 73.3139Z" fill="white"/>
<path d="M308.673 112.104H309.26C309.923 112.104 310.23 111.918 310.23 111.461C310.23 110.985 309.895 110.789 309.223 110.789H308.682V112.104H308.673ZM309.391 110.23C310.557 110.23 311.154 110.631 311.154 111.358C311.154 111.974 310.818 112.384 310.221 112.515L311.154 114.399H310.156L309.335 112.664H308.682V114.399H307.787V110.23H309.391ZM307.087 110.118C306.472 110.752 306.126 111.545 306.126 112.384C306.126 113.224 306.444 113.998 307.041 114.604C307.656 115.21 308.44 115.546 309.242 115.546C310.118 115.546 310.911 115.229 311.536 114.623C312.133 114.044 312.459 113.27 312.459 112.431C312.459 111.535 312.152 110.761 311.555 110.155C310.939 109.539 310.165 109.204 309.288 109.204C308.412 109.204 307.665 109.512 307.078 110.108M311.956 109.773C312.646 110.482 313.019 111.377 313.019 112.375C313.019 113.373 312.637 114.324 311.928 115.005C311.2 115.714 310.258 116.096 309.288 116.096C308.318 116.096 307.367 115.695 306.649 114.968C305.949 114.259 305.567 113.345 305.567 112.366C305.567 111.386 305.968 110.426 306.686 109.717C307.386 109.017 308.272 108.653 309.288 108.653C310.305 108.653 311.238 109.036 311.956 109.763" fill="white"/>
<path d="M276.476 39.168L274.042 39.0002C272.587 38.8323 264.575 38.1141 258.289 38.1141C256.377 38.1141 254.642 38.1794 253.224 38.3659C252.525 38.4592 251.9 38.5804 251.331 38.7763C250.855 38.9628 250.305 39.1587 249.829 39.7743L252.655 34.915L249.988 34.6258C249.372 34.5419 248.701 34.458 248.001 34.374L253.663 23.2936L251.21 23.0511C249.783 22.9019 241.752 22.1744 235.475 22.1744C233.563 22.1744 231.828 22.249 230.411 22.4262C229.702 22.5288 229.077 22.6501 228.508 22.846C227.958 23.0698 227.305 23.275 226.801 24.189L225.523 26.6793C224.833 26.642 224.115 26.6047 223.397 26.5674L228.303 17.1472L225.812 16.8861C224.348 16.7182 216.336 16 210.059 16C208.147 16 206.403 16.0746 204.995 16.2518C204.286 16.3358 203.661 16.457 203.092 16.6622C202.542 16.8861 201.898 17.0912 201.376 17.996L200.108 20.5049C197.636 20.365 194.959 20.2624 192.553 20.2624C190.65 20.2624 188.915 20.3184 187.507 20.5049C186.807 20.5982 186.182 20.7194 185.614 20.9153C185.063 21.1391 184.41 21.3536 183.897 22.249L180.39 29.1043C179.253 29.067 178.115 29.039 177.042 29.039C175.13 29.039 173.386 29.1043 171.978 29.2908C171.269 29.3748 170.653 29.5054 170.075 29.6919C169.515 29.9251 168.872 30.1303 168.359 31.035L167.081 33.5439C164.619 33.404 161.942 33.2921 159.535 33.2921C157.633 33.2921 155.898 33.3574 154.499 33.5439C153.79 33.6372 153.184 33.7491 152.606 33.9636C152.046 34.1781 151.402 34.3927 150.889 35.2787L142.495 51.6474L141.283 54.2403L144.435 54.2123C147.886 54.0165 151.207 53.9419 154.518 53.9419H155.609L151.645 61.6645L150.339 64.388L153.576 64.2294C157.157 64.0336 160.571 63.959 164.003 63.959C168.154 63.959 172.323 64.0709 176.8 64.2574L178.217 64.3414L179.877 60.2748C180.708 60.3308 182.191 60.564 183.757 60.7318L179.952 67.2047L182.47 66.9902C186.108 66.785 189.577 66.7011 193.066 66.7011C197.16 66.7011 201.273 66.813 205.694 66.9995L206.571 67.0368L207.392 65.9456L207.718 65.4979L207.933 65.0689C207.784 63.7724 207.047 63.5299 206.767 63.2128L206.59 63.0169C211.263 63.3061 217.81 64.1362 219.554 64.5372L220.804 64.8264L222.138 62.2335L222.231 61.935H222.24C222.259 61.8418 222.791 60.8718 223.248 60.051C223.49 59.6126 223.733 59.1743 223.919 58.8012C224.022 58.6053 224.106 58.4374 224.171 58.2602C224.19 58.2136 224.208 58.167 224.227 58.1203C224.525 58.1296 224.815 58.1483 225.104 58.1483L222.483 63.6139C222.483 63.6139 232.854 63.0076 236.361 63.0076C240.437 63.0076 244.541 63.1195 248.953 63.2967L250.212 63.4087L251.974 59.482C254.549 59.6872 257.328 60.0137 259.511 60.3121H259.529L262.84 60.8531H262.906L263.745 61.0023L264.127 61.0396L265.321 61.2262L267.7 56.5347L268.847 54.2776L276.514 39.168H276.476Z" fill="white"/>
<path d="M192.123 48.4856L183.31 65.0688L192.87 64.6585H202.103L205.834 64.9476L205.088 64.1455L200.117 61.0489L207.093 61.0023L215.991 61.4873L219.862 62.4946L226.064 50.6774L228.629 45.3145C228.629 45.3145 216.439 44.0273 214.182 44.1299C208.669 44.3818 208.352 45.2305 208.352 45.2305L206.618 48.5602C206.618 48.5602 203.139 48.1219 198.951 48.1405C194.763 48.1592 192.123 48.4856 192.123 48.4856Z" fill="white"/>
<path d="M234.328 44.8947L225.635 61.4313L235.494 60.9183L245.045 60.909L248.514 61.1608L250.193 57.2529L259.417 57.7285L263.81 58.4094L272.904 41.052L258.951 40.2033L253.084 40.6137L251.508 41.4811L249.438 45.1279L242.61 44.5869L237.611 44.7362L234.328 44.8947Z" fill="#00A4ED"/>
<path d="M245.744 59.4633L247.927 60.6572L249.074 61.1329L250.743 57.4021L245.959 57.0477L244.606 57.4021L244.093 58.0457L245.744 59.4633Z" fill="#0088CA"/>
<path d="M251.005 57.4767L249.26 61.2728L248.962 61.0956L250.118 57.4114L251.005 57.4767Z" fill="#0088CA"/>
<path d="M233.05 48.5975L236.417 49.7167L239.393 51.2183L241.64 52.5334L244.373 54.3988L246.835 50.1551L243.086 47.5622L241.062 46.1818L238.423 44.8574L235.97 44.8387L234.328 44.9693L233.722 45.9953L233.05 48.5975Z" fill="#FFF000"/>
<path d="M249.326 45.4823C243.58 45.0626 235.335 44.7361 234.654 46.0512L225.813 61.5246L225.244 61.4779L233.629 45.1092C234.375 43.6542 243.375 43.9527 249.885 44.3724L249.316 45.4729L249.326 45.4823Z" fill="#0088CA"/>
<path d="M260.145 58.7545L255.892 55.63L252.693 53.5687L249.764 51.8246L246.435 50.0618L248.962 45.2585L252.898 47.3197L257.058 49.6328L261.861 52.6827L266.189 55.7792L264.342 59.4074L260.145 58.7545Z" fill="#FFF000"/>
<path d="M264.342 59.4074L273.846 40.651C271.664 40.4085 252.198 38.7016 251.098 40.8655L243.375 55.9844L243.963 56.0404L252.114 41.7982C253.084 39.9048 269.509 41.3971 272.018 41.7142L262.56 59.0623L264.351 59.3981L264.342 59.4074Z" fill="#0088CA"/>
<path d="M225.589 61.6272C233.582 61.1981 240.782 61.3007 248.981 61.6458L249.261 61.2634C249.279 60.4333 243.636 58.2135 244.868 57.7099C247.274 57.0477 260.229 58.5586 263.148 59.2115L263.885 57.7658C260.397 57.3741 245.054 55.8165 242.797 57.3181C241.948 57.8964 246.248 59.7245 246.882 60.1722C247.069 60.2841 247.395 60.6199 246.966 60.6758C244.746 60.7691 241.892 60.5732 239.617 60.6012C234.729 60.6478 230.793 60.9743 226.046 61.2634L225.589 61.6085V61.6272Z" fill="#0088CA"/>
<path d="M211.514 28.9644L202.831 45.5103L212.671 44.9694H222.24L225.701 45.2025L227.389 41.3319L236.585 41.7982L240.997 42.4604L250.081 25.131L236.128 24.2729L230.261 24.6833L228.713 25.5507L226.624 29.1976L219.787 28.6659L214.797 28.8058L211.514 28.9644Z" fill="#FFF000"/>
<path d="M222.931 43.5423L225.113 44.7362L226.26 45.2025L227.911 41.4624L223.136 41.0987L221.783 41.4717L221.298 42.1153L222.931 43.5423Z" fill="#B9AB00"/>
<path d="M219.945 41.6024C219.498 42.9548 219.414 43.6916 221.111 44.9787L224.404 45.5197L225.243 44.6989C223.657 43.5797 221.475 42.7682 219.945 41.6024Z" fill="#B9AB00"/>
<path d="M241.528 43.4677L251.032 24.7113C248.84 24.4782 229.366 22.762 228.284 24.9352L220.57 40.0634L221.149 40.1194L229.31 25.8772C230.27 23.9838 246.704 25.4575 249.204 25.7839L239.737 43.1506L241.537 43.4677H241.528Z" fill="#D6BE00"/>
<path d="M226.512 29.552C220.757 29.1323 212.512 28.7965 211.841 30.1303L203.036 45.5477L202.449 45.529L210.824 29.1789C211.561 27.7146 220.562 28.0224 227.081 28.4328L226.521 29.552H226.512Z" fill="#D6BE00"/>
<path d="M162.222 45.8461L153.52 62.4014L163.359 61.8604L172.92 61.8511L177.098 62.3734L178.087 58.2229L187.283 58.6893L191.685 59.3422L200.788 41.9941L186.826 41.1454L180.959 41.5651L179.402 42.4325L177.322 46.07L170.495 45.529L165.495 45.6782L162.222 45.8461Z" fill="#201D1D"/>
<path d="M192.217 60.3494L201.74 41.593C199.548 41.3225 180.082 39.6437 178.963 41.7982L171.269 56.9264L171.828 56.9917L179.98 42.7309C180.959 40.8468 197.393 42.3298 199.884 42.6563L190.426 60.023L192.207 60.3494H192.217Z" fill="#1A1A1A"/>
<path d="M177.2 46.4337C171.446 45.9953 163.219 45.6782 162.529 46.9933L153.78 62.3827L153.118 62.4107L161.522 46.0513C162.259 44.6056 171.278 44.8947 177.779 45.3145L177.2 46.4244V46.4337Z" fill="#1A1A1A"/>
<path d="M178.702 58.6706L177.06 62.2521L176.902 62.0469L177.825 58.5214L178.702 58.596V58.6706Z" fill="#1A1A1A"/>
<path d="M153.09 35.8197L144.454 52.4123L154.228 51.8433L163.788 51.8153L167.258 52.0765L168.937 48.1778L178.161 48.6535L182.545 49.3064L191.648 31.977L177.685 31.1189L171.819 31.5293L170.252 32.3874L168.172 36.0529L161.345 35.5212L156.355 35.6611L153.09 35.8197Z" fill="#00A84F"/>
<path d="M164.498 50.3883L166.68 51.5728L167.827 52.0485L169.469 48.3271L164.684 47.954L163.341 48.3271L162.847 48.9613L164.498 50.3883Z" fill="#007A37"/>
<path d="M183.077 50.3137L192.599 31.5573C190.398 31.3148 170.942 29.6173 169.842 31.7811L162.128 46.9L162.707 46.9653L170.849 32.7231C171.838 30.8298 188.253 32.3314 190.762 32.6205L181.295 49.9872L183.077 50.3044V50.3137Z" fill="#007A37"/>
<path d="M168.051 36.3979C162.315 35.9875 154.07 35.6611 153.398 36.9855L144.547 52.4402L143.978 52.4029L152.372 36.0248C153.109 34.5792 162.119 34.8776 168.629 35.2974L168.051 36.3979Z" fill="#007A37"/>
<path d="M144.379 52.3563C152.354 51.9273 159.517 52.235 167.706 52.5708L168.004 52.1791C168.013 51.3583 162.371 49.1292 163.592 48.6255C166.008 47.954 178.963 49.4836 181.864 50.1272L182.601 48.6815C179.112 48.2898 163.798 46.7228 161.513 48.2338C160.673 48.8027 164.973 50.6495 165.607 51.0878C165.794 51.2091 166.12 51.5355 165.682 51.5915C163.49 51.7034 160.627 51.4889 158.323 51.5169C153.445 51.5728 149.555 51.7127 144.799 52.0205L144.258 52.319L144.36 52.3563H144.379Z" fill="#007A37"/>
<path d="M186.089 22.7993L177.406 39.3266L187.236 38.8136L196.796 38.795L200.266 39.0281L201.945 35.1481L211.151 35.6145L215.571 36.2767L224.656 18.9473L210.694 18.0985L204.827 18.5089L203.269 19.3763L201.189 23.0138L194.343 22.4822L189.363 22.6221L186.089 22.7993Z" fill="#ED392E"/>
<path d="M197.496 37.3399L199.669 38.5524L201.012 39.14L203.017 35.3626L197.71 34.9243L196.376 35.2973L195.854 35.9129L197.496 37.3399Z" fill="#AC1319"/>
<path d="M216.103 37.2933L225.607 18.5369C223.415 18.2851 203.95 16.5876 202.859 18.7514L195.155 33.8797L195.724 33.9356L203.885 19.6934C204.845 17.8001 221.261 19.2924 223.77 19.5815L214.312 36.9482L216.112 37.2933H216.103Z" fill="#AC1319"/>
<path d="M201.087 23.3776C195.323 22.9392 187.078 22.6221 186.397 23.9372L177.555 39.4385L176.996 39.3733L185.38 23.0045C186.127 21.5589 195.136 21.848 201.647 22.2677L201.087 23.3963V23.3776Z" fill="#AC1319"/>
<path d="M177.341 39.5318C185.334 39.0841 192.534 39.2053 200.723 39.5318L201.013 39.1401C201.013 38.3379 195.388 36.0902 196.61 35.6052C199.017 34.9243 211.99 36.4446 214.882 37.0975L215.609 35.6611C212.121 35.2694 196.797 33.7025 194.53 35.2228C193.7 35.7824 197.981 37.6198 198.634 38.0581C198.802 38.198 199.138 38.5058 198.709 38.5618C196.508 38.6551 193.654 38.4778 191.341 38.4872C186.472 38.5431 182.536 38.8789 177.779 39.1587L177.341 39.5318Z" fill="#AC1319"/>
<path d="M202.43 45.5756C210.423 45.1279 217.623 45.2491 225.812 45.5756L226.101 45.1838C226.101 44.3817 220.477 42.1339 221.699 41.6489C224.105 40.9681 237.079 42.4884 239.97 43.1413L240.698 41.7049C237.21 41.3132 221.886 39.7463 219.619 41.2665C218.789 41.8262 223.07 43.6636 223.723 44.1019C223.891 44.2418 224.227 44.5496 223.798 44.6056C221.596 44.6988 218.742 44.5216 216.429 44.531C211.561 44.5869 207.625 44.9227 202.868 45.2025L202.43 45.5756Z" fill="#D6BE00"/>
<path d="M182.358 65.3207C190.342 64.873 197.533 64.9942 205.741 65.3207L206.039 64.929C206.039 64.1175 200.415 61.8977 201.637 61.3941C204.034 60.7225 216.989 62.2521 219.899 62.905L220.627 61.4687C221.177 60.2655 222.93 57.3555 222.679 57.3369C222.455 57.3182 219.498 61.3381 219.256 61.3194C214.219 60.7692 201.59 59.6499 199.557 61.021C198.718 61.5713 203.008 63.418 203.652 63.8564C203.838 63.9869 205.433 64.4533 205.013 64.5279C202.794 64.6025 198.569 64.416 196.274 64.4346C191.695 64.4906 188.038 64.6212 183.664 64.9103C183.394 64.9103 186.266 59.9577 185.977 59.9764L182.377 65.3114L182.358 65.3207Z" fill="#4E4F51"/>
<path d="M153.361 62.42C161.354 61.991 168.638 62.2708 176.855 62.5879L177.089 62.3734C177.089 61.5526 171.511 59.1556 172.724 58.652C175.139 57.9898 188.104 59.4914 190.995 60.1443L191.732 58.6986C188.244 58.3255 172.919 56.7586 170.644 58.2696C169.814 58.8292 174.113 60.6573 174.748 61.1143C174.925 61.2355 175.242 61.5526 174.813 61.6179C172.612 61.7205 169.758 61.506 167.463 61.5526C162.585 61.5993 158.649 61.9164 153.893 62.2242L153.426 62.2895L153.342 62.42H153.361Z" fill="#1A1A1A"/>
<path d="M211.337 39.7649L202.645 56.3109L212.494 55.7792H222.044L225.514 56.0124L227.202 52.1231L236.408 52.6081L240.157 54.0071L246.835 41.8075L249.494 36.4446C249.494 36.4446 236.874 35.1574 234.543 35.26C228.844 35.5119 228.508 36.3606 228.508 36.3606L226.708 39.681L219.601 39.4758L214.602 39.625L211.328 39.7743L211.337 39.7649Z" fill="white"/>
<path d="M222.753 54.3336L224.917 55.3315L226.26 56.1337L227.939 52.263L222.939 51.9086L221.615 52.263L221.111 52.9159L222.753 54.3336Z" fill="#201D1D"/>
<path fill-rule="evenodd" clip-rule="evenodd" d="M213.883 55.7699L222.259 39.5318L219.255 39.4945L215.348 39.5784L213.939 39.6251L212.54 39.6717L211.272 39.7836L208.343 45.4824L210.414 45.0347L211.887 44.8668L214.359 44.7922L217.166 44.8574L223.695 45.0626L220.981 50.0805L218.556 49.8753L214.928 49.8567L211.44 49.9686L208.184 50.2204L205.713 50.4629L202.514 56.3109L213.883 55.7699Z" fill="#201D1D"/>
<path fill-rule="evenodd" clip-rule="evenodd" d="M229.851 51.778L238.227 35.4186C241.426 35.2693 246.406 35.829 249.773 36.2766L246.667 42.1619C239.467 41.509 232.63 41.2292 225.635 41.593L222.875 46.471C229.73 46.5269 236.697 46.8627 243.599 47.7954L240.792 52.9159L229.851 51.778Z" fill="#201D1D"/>
<path d="M202.598 56.4974C210.573 56.059 217.773 56.1896 225.962 56.5347L226.261 56.1337C226.27 55.3222 220.627 53.0931 221.858 52.5894C224.255 51.9086 237.238 53.4382 240.13 54.0817L240.866 52.6547C237.378 52.263 222.045 50.6774 219.778 52.1977C218.939 52.7667 223.239 54.6041 223.873 55.0611C224.069 55.173 225.664 55.6487 225.235 55.7326C223.024 55.8259 218.79 55.6207 216.505 55.6393C211.627 55.6953 207.803 55.8539 203.055 56.143L202.617 56.5067L202.598 56.4974Z" fill="#201D1D"/>
</g>
<defs>
<clipPath id="clip0_884_719">
<rect width="286.019" height="120" fill="white" transform="translate(27 16)"/>
</clipPath>
</defs>
</svg>
